<svg xmlns:xlink="http://www.w3.org/1999/xlink" width="75ex" height="45.009ex" style="font-size: 15px; vertical-align: -3.005ex; max-width: 450;" viewBox="0 -18085.3 32291.5 19378.9" role="img" focusable="false" xmlns="http://www.w3.org/2000/svg">
<defs>
<path stroke-width="1" id="E1-MJMATHI-6C" d="M117 59Q117 26 142 26Q179 26 205 131Q211 151 215 152Q217 153 225 153H229Q238 153 241 153T246 151T248 144Q247 138 245 128T234 90T214 43T183 6T137 -11Q101 -11 70 11T38 85Q38 97 39 102L104 360Q167 615 167 623Q167 626 166 628T162 632T157 634T149 635T141 636T132 637T122 637Q112 637 109 637T101 638T95 641T94 647Q94 649 96 661Q101 680 107 682T179 688Q194 689 213 690T243 693T254 694Q266 694 266 686Q266 675 193 386T118 83Q118 81 118 75T117 65V59Z"></path>
<path stroke-width="1" id="E1-MJMATHI-61" d="M33 157Q33 258 109 349T280 441Q331 441 370 392Q386 422 416 422Q429 422 439 414T449 394Q449 381 412 234T374 68Q374 43 381 35T402 26Q411 27 422 35Q443 55 463 131Q469 151 473 152Q475 153 483 153H487Q506 153 506 144Q506 138 501 117T481 63T449 13Q436 0 417 -8Q409 -10 393 -10Q359 -10 336 5T306 36L300 51Q299 52 296 50Q294 48 292 46Q233 -10 172 -10Q117 -10 75 30T33 157ZM351 328Q351 334 346 350T323 385T277 405Q242 405 210 374T160 293Q131 214 119 129Q119 126 119 118T118 106Q118 61 136 44T179 26Q217 26 254 59T298 110Q300 114 325 217T351 328Z"></path>
<path stroke-width="1" id="E1-MJMATHI-62" d="M73 647Q73 657 77 670T89 683Q90 683 161 688T234 694Q246 694 246 685T212 542Q204 508 195 472T180 418L176 399Q176 396 182 402Q231 442 283 442Q345 442 383 396T422 280Q422 169 343 79T173 -11Q123 -11 82 27T40 150V159Q40 180 48 217T97 414Q147 611 147 623T109 637Q104 637 101 637H96Q86 637 83 637T76 640T73 647ZM336 325V331Q336 405 275 405Q258 405 240 397T207 376T181 352T163 330L157 322L136 236Q114 150 114 114Q114 66 138 42Q154 26 178 26Q211 26 245 58Q270 81 285 114T318 219Q336 291 336 325Z"></path>
<path stroke-width="1" id="E1-MJMATHI-65" d="M39 168Q39 225 58 272T107 350T174 402T244 433T307 442H310Q355 442 388 420T421 355Q421 265 310 237Q261 224 176 223Q139 223 138 221Q138 219 132 186T125 128Q125 81 146 54T209 26T302 45T394 111Q403 121 406 121Q410 121 419 112T429 98T420 82T390 55T344 24T281 -1T205 -11Q126 -11 83 42T39 168ZM373 353Q367 405 305 405Q272 405 244 391T199 357T170 316T154 280T149 261Q149 260 169 260Q282 260 327 284T373 353Z"></path>
<path stroke-width="1" id="E1-MJMAIN-2E" d="M78 60Q78 84 95 102T138 120Q162 120 180 104T199 61Q199 36 182 18T139 0T96 17T78 60Z"></path>
<path stroke-width="1" id="E1-MJMATHI-74" d="M26 385Q19 392 19 395Q19 399 22 411T27 425Q29 430 36 430T87 431H140L159 511Q162 522 166 540T173 566T179 586T187 603T197 615T211 624T229 626Q247 625 254 615T261 596Q261 589 252 549T232 470L222 433Q222 431 272 431H323Q330 424 330 420Q330 398 317 385H210L174 240Q135 80 135 68Q135 26 162 26Q197 26 230 60T283 144Q285 150 288 151T303 153H307Q322 153 322 145Q322 142 319 133Q314 117 301 95T267 48T216 6T155 -11Q125 -11 98 4T59 56Q57 64 57 83V101L92 241Q127 382 128 383Q128 385 77 385H26Z"></path>
<path stroke-width="1" id="E1-MJMATHI-78" d="M52 289Q59 331 106 386T222 442Q257 442 286 424T329 379Q371 442 430 442Q467 442 494 420T522 361Q522 332 508 314T481 292T458 288Q439 288 427 299T415 328Q415 374 465 391Q454 404 425 404Q412 404 406 402Q368 386 350 336Q290 115 290 78Q290 50 306 38T341 26Q378 26 414 59T463 140Q466 150 469 151T485 153H489Q504 153 504 145Q504 144 502 134Q486 77 440 33T333 -11Q263 -11 227 52Q186 -10 133 -10H127Q78 -10 57 16T35 71Q35 103 54 123T99 143Q142 143 142 101Q142 81 130 66T107 46T94 41L91 40Q91 39 97 36T113 29T132 26Q168 26 194 71Q203 87 217 139T245 247T261 313Q266 340 266 352Q266 380 251 392T217 404Q177 404 142 372T93 290Q91 281 88 280T72 278H58Q52 284 52 289Z"></path>
<path stroke-width="1" id="E1-MJMATHI-43" d="M50 252Q50 367 117 473T286 641T490 704Q580 704 633 653Q642 643 648 636T656 626L657 623Q660 623 684 649Q691 655 699 663T715 679T725 690L740 705H746Q760 705 760 698Q760 694 728 561Q692 422 692 421Q690 416 687 415T669 413H653Q647 419 647 422Q647 423 648 429T650 449T651 481Q651 552 619 605T510 659Q484 659 454 652T382 628T299 572T226 479Q194 422 175 346T156 222Q156 108 232 58Q280 24 350 24Q441 24 512 92T606 240Q610 253 612 255T628 257Q648 257 648 248Q648 243 647 239Q618 132 523 55T319 -22Q206 -22 128 53T50 252Z"></path>
<path stroke-width="1" id="E1-MJMATHI-72" d="M21 287Q22 290 23 295T28 317T38 348T53 381T73 411T99 433T132 442Q161 442 183 430T214 408T225 388Q227 382 228 382T236 389Q284 441 347 441H350Q398 441 422 400Q430 381 430 363Q430 333 417 315T391 292T366 288Q346 288 334 299T322 328Q322 376 378 392Q356 405 342 405Q286 405 239 331Q229 315 224 298T190 165Q156 25 151 16Q138 -11 108 -11Q95 -11 87 -5T76 7T74 17Q74 30 114 189T154 366Q154 405 128 405Q107 405 92 377T68 316T57 280Q55 278 41 278H27Q21 284 21 287Z"></path>
<path stroke-width="1" id="E1-MJMAIN-30" d="M96 585Q152 666 249 666Q297 666 345 640T423 548Q460 465 460 320Q460 165 417 83Q397 41 362 16T301 -15T250 -22Q224 -22 198 -16T137 16T82 83Q39 165 39 320Q39 494 96 585ZM321 597Q291 629 250 629Q208 629 178 597Q153 571 145 525T137 333Q137 175 145 125T181 46Q209 16 250 16Q290 16 318 46Q347 76 354 130T362 333Q362 478 354 524T321 597Z"></path>
<path stroke-width="1" id="E1-MJMATHI-75" d="M21 287Q21 295 30 318T55 370T99 420T158 442Q204 442 227 417T250 358Q250 340 216 246T182 105Q182 62 196 45T238 27T291 44T328 78L339 95Q341 99 377 247Q407 367 413 387T427 416Q444 431 463 431Q480 431 488 421T496 402L420 84Q419 79 419 68Q419 43 426 35T447 26Q469 29 482 57T512 145Q514 153 532 153Q551 153 551 144Q550 139 549 130T540 98T523 55T498 17T462 -8Q454 -10 438 -10Q372 -10 347 46Q345 45 336 36T318 21T296 6T267 -6T233 -11Q189 -11 155 7Q103 38 103 113Q103 170 138 262T173 379Q173 380 173 381Q173 390 173 393T169 400T158 404H154Q131 404 112 385T82 344T65 302T57 280Q55 278 41 278H27Q21 284 21 287Z"></path>
<path stroke-width="1" id="E1-MJMATHI-6E" d="M21 287Q22 293 24 303T36 341T56 388T89 425T135 442Q171 442 195 424T225 390T231 369Q231 367 232 367L243 378Q304 442 382 442Q436 442 469 415T503 336T465 179T427 52Q427 26 444 26Q450 26 453 27Q482 32 505 65T540 145Q542 153 560 153Q580 153 580 145Q580 144 576 130Q568 101 554 73T508 17T439 -10Q392 -10 371 17T350 73Q350 92 386 193T423 345Q423 404 379 404H374Q288 404 229 303L222 291L189 157Q156 26 151 16Q138 -11 108 -11Q95 -11 87 -5T76 7T74 17Q74 30 112 180T152 343Q153 348 153 366Q153 405 129 405Q91 405 66 305Q60 285 60 284Q58 278 41 278H27Q21 284 21 287Z"></path>
<path stroke-width="1" id="E1-MJMATHI-63" d="M34 159Q34 268 120 355T306 442Q362 442 394 418T427 355Q427 326 408 306T360 285Q341 285 330 295T319 325T330 359T352 380T366 386H367Q367 388 361 392T340 400T306 404Q276 404 249 390Q228 381 206 359Q162 315 142 235T121 119Q121 73 147 50Q169 26 205 26H209Q321 26 394 111Q403 121 406 121Q410 121 419 112T429 98T420 83T391 55T346 25T282 0T202 -11Q127 -11 81 37T34 159Z"></path>
<path stroke-width="1" id="E1-MJMATHI-64" d="M366 683Q367 683 438 688T511 694Q523 694 523 686Q523 679 450 384T375 83T374 68Q374 26 402 26Q411 27 422 35Q443 55 463 131Q469 151 473 152Q475 153 483 153H487H491Q506 153 506 145Q506 140 503 129Q490 79 473 48T445 8T417 -8Q409 -10 393 -10Q359 -10 336 5T306 36L300 51Q299 52 296 50Q294 48 292 46Q233 -10 172 -10Q117 -10 75 30T33 157Q33 205 53 255T101 341Q148 398 195 420T280 442Q336 442 364 400Q369 394 369 396Q370 400 396 505T424 616Q424 629 417 632T378 637H357Q351 643 351 645T353 664Q358 683 366 683ZM352 326Q329 405 277 405Q242 405 210 374T160 293Q131 214 119 129Q119 126 119 118T118 106Q118 61 136 44T179 26Q233 26 290 98L298 109L352 326Z"></path>
<path stroke-width="1" id="E1-MJMAIN-28" d="M94 250Q94 319 104 381T127 488T164 576T202 643T244 695T277 729T302 750H315H319Q333 750 333 741Q333 738 316 720T275 667T226 581T184 443T167 250T184 58T225 -81T274 -167T316 -220T333 -241Q333 -250 318 -250H315H302L274 -226Q180 -141 137 -14T94 250Z"></path>
<path stroke-width="1" id="E1-MJMAIN-29" d="M60 749L64 750Q69 750 74 750H86L114 726Q208 641 251 514T294 250Q294 182 284 119T261 12T224 -76T186 -143T145 -194T113 -227T90 -246Q87 -249 86 -250H74Q66 -250 63 -250T58 -247T55 -238Q56 -237 66 -225Q221 -64 221 250T66 725Q56 737 55 738Q55 746 60 749Z"></path>
<path stroke-width="1" id="E1-MJMAIN-2C" d="M78 35T78 60T94 103T137 121Q165 121 187 96T210 8Q210 -27 201 -60T180 -117T154 -158T130 -185T117 -194Q113 -194 104 -185T95 -172Q95 -168 106 -156T131 -126T157 -76T173 -3V9L172 8Q170 7 167 6T161 3T152 1T140 0Q113 0 96 17Z"></path>
<path stroke-width="1" id="E1-MJMATHI-6F" d="M201 -11Q126 -11 80 38T34 156Q34 221 64 279T146 380Q222 441 301 441Q333 441 341 440Q354 437 367 433T402 417T438 387T464 338T476 268Q476 161 390 75T201 -11ZM121 120Q121 70 147 48T206 26Q250 26 289 58T351 142Q360 163 374 216T388 308Q388 352 370 375Q346 405 306 405Q243 405 195 347Q158 303 140 230T121 120Z"></path>
<path stroke-width="1" id="E1-MJMAIN-31" d="M213 578L200 573Q186 568 160 563T102 556H83V602H102Q149 604 189 617T245 641T273 663Q275 666 285 666Q294 666 302 660V361L303 61Q310 54 315 52T339 48T401 46H427V0H416Q395 3 257 3Q121 3 100 0H88V46H114Q136 46 152 46T177 47T193 50T201 52T207 57T213 61V578Z"></path>
<path stroke-width="1" id="E1-MJMAIN-38" d="M70 417T70 494T124 618T248 666Q319 666 374 624T429 515Q429 485 418 459T392 417T361 389T335 371T324 363L338 354Q352 344 366 334T382 323Q457 264 457 174Q457 95 399 37T249 -22Q159 -22 101 29T43 155Q43 263 172 335L154 348Q133 361 127 368Q70 417 70 494ZM286 386L292 390Q298 394 301 396T311 403T323 413T334 425T345 438T355 454T364 471T369 491T371 513Q371 556 342 586T275 624Q268 625 242 625Q201 625 165 599T128 534Q128 511 141 492T167 463T217 431Q224 426 228 424L286 386ZM250 21Q308 21 350 55T392 137Q392 154 387 169T375 194T353 216T330 234T301 253T274 270Q260 279 244 289T218 306L210 311Q204 311 181 294T133 239T107 157Q107 98 150 60T250 21Z"></path>
<path stroke-width="1" id="E1-MJMAIN-35" d="M164 157Q164 133 148 117T109 101H102Q148 22 224 22Q294 22 326 82Q345 115 345 210Q345 313 318 349Q292 382 260 382H254Q176 382 136 314Q132 307 129 306T114 304Q97 304 95 310Q93 314 93 485V614Q93 664 98 664Q100 666 102 666Q103 666 123 658T178 642T253 634Q324 634 389 662Q397 666 402 666Q410 666 410 648V635Q328 538 205 538Q174 538 149 544L139 546V374Q158 388 169 396T205 412T256 420Q337 420 393 355T449 201Q449 109 385 44T229 -22Q148 -22 99 32T50 154Q50 178 61 192T84 210T107 214Q132 214 148 197T164 157Z"></path>
<path stroke-width="1" id="E1-MJMATHI-70" d="M23 287Q24 290 25 295T30 317T40 348T55 381T75 411T101 433T134 442Q209 442 230 378L240 387Q302 442 358 442Q423 442 460 395T497 281Q497 173 421 82T249 -10Q227 -10 210 -4Q199 1 187 11T168 28L161 36Q160 35 139 -51T118 -138Q118 -144 126 -145T163 -148H188Q194 -155 194 -157T191 -175Q188 -187 185 -190T172 -194Q170 -194 161 -194T127 -193T65 -192Q-5 -192 -24 -194H-32Q-39 -187 -39 -183Q-37 -156 -26 -148H-6Q28 -147 33 -136Q36 -130 94 103T155 350Q156 355 156 364Q156 405 131 405Q109 405 94 377T71 316T59 280Q57 278 43 278H29Q23 284 23 287ZM178 102Q200 26 252 26Q282 26 310 49T356 107Q374 141 392 215T411 325V331Q411 405 350 405Q339 405 328 402T306 393T286 380T269 365T254 350T243 336T235 326L232 322Q232 321 229 308T218 264T204 212Q178 106 178 102Z"></path>
<path stroke-width="1" id="E1-MJMATHI-68" d="M137 683Q138 683 209 688T282 694Q294 694 294 685Q294 674 258 534Q220 386 220 383Q220 381 227 388Q288 442 357 442Q411 442 444 415T478 336Q478 285 440 178T402 50Q403 36 407 31T422 26Q450 26 474 56T513 138Q516 149 519 151T535 153Q555 153 555 145Q555 144 551 130Q535 71 500 33Q466 -10 419 -10H414Q367 -10 346 17T325 74Q325 90 361 192T398 345Q398 404 354 404H349Q266 404 205 306L198 293L164 158Q132 28 127 16Q114 -11 83 -11Q69 -11 59 -2T48 16Q48 30 121 320L195 616Q195 629 188 632T149 637H128Q122 643 122 645T124 664Q129 683 137 683Z"></path>
<path stroke-width="1" id="E1-MJMAIN-5B" d="M118 -250V750H255V710H158V-210H255V-250H118Z"></path>
<path stroke-width="1" id="E1-MJMAIN-2212" d="M84 237T84 250T98 270H679Q694 262 694 250T679 230H98Q84 237 84 250Z"></path>
<path stroke-width="1" id="E1-MJMATHI-69" d="M184 600Q184 624 203 642T247 661Q265 661 277 649T290 619Q290 596 270 577T226 557Q211 557 198 567T184 600ZM21 287Q21 295 30 318T54 369T98 420T158 442Q197 442 223 419T250 357Q250 340 236 301T196 196T154 83Q149 61 149 51Q149 26 166 26Q175 26 185 29T208 43T235 78T260 137Q263 149 265 151T282 153Q302 153 302 143Q302 135 293 112T268 61T223 11T161 -11Q129 -11 102 10T74 74Q74 91 79 106T122 220Q160 321 166 341T173 380Q173 404 156 404H154Q124 404 99 371T61 287Q60 286 59 284T58 281T56 279T53 278T49 278T41 278H27Q21 284 21 287Z"></path>
<path stroke-width="1" id="E1-MJMAIN-5D" d="M22 710V750H159V-250H22V-210H119V710H22Z"></path>
<path stroke-width="1" id="E1-MJMAIN-33" d="M127 463Q100 463 85 480T69 524Q69 579 117 622T233 665Q268 665 277 664Q351 652 390 611T430 522Q430 470 396 421T302 350L299 348Q299 347 308 345T337 336T375 315Q457 262 457 175Q457 96 395 37T238 -22Q158 -22 100 21T42 130Q42 158 60 175T105 193Q133 193 151 175T169 130Q169 119 166 110T159 94T148 82T136 74T126 70T118 67L114 66Q165 21 238 21Q293 21 321 74Q338 107 338 175V195Q338 290 274 322Q259 328 213 329L171 330L168 332Q166 335 166 348Q166 366 174 366Q202 366 232 371Q266 376 294 413T322 525V533Q322 590 287 612Q265 626 240 626Q208 626 181 615T143 592T132 580H135Q138 579 143 578T153 573T165 566T175 555T183 540T186 520Q186 498 172 481T127 463Z"></path>
<path stroke-width="1" id="E1-MJMAIN-37" d="M55 458Q56 460 72 567L88 674Q88 676 108 676H128V672Q128 662 143 655T195 646T364 644H485V605L417 512Q408 500 387 472T360 435T339 403T319 367T305 330T292 284T284 230T278 162T275 80Q275 66 275 52T274 28V19Q270 2 255 -10T221 -22Q210 -22 200 -19T179 0T168 40Q168 198 265 368Q285 400 349 489L395 552H302Q128 552 119 546Q113 543 108 522T98 479L95 458V455H55V458Z"></path>
<path stroke-width="1" id="E1-MJMAIN-36" d="M42 313Q42 476 123 571T303 666Q372 666 402 630T432 550Q432 525 418 510T379 495Q356 495 341 509T326 548Q326 592 373 601Q351 623 311 626Q240 626 194 566Q147 500 147 364L148 360Q153 366 156 373Q197 433 263 433H267Q313 433 348 414Q372 400 396 374T435 317Q456 268 456 210V192Q456 169 451 149Q440 90 387 34T253 -22Q225 -22 199 -14T143 16T92 75T56 172T42 313ZM257 397Q227 397 205 380T171 335T154 278T148 216Q148 133 160 97T198 39Q222 21 251 21Q302 21 329 59Q342 77 347 104T352 209Q352 289 347 316T329 361Q302 397 257 397Z"></path>
<path stroke-width="1" id="E1-MJMAIN-34" d="M462 0Q444 3 333 3Q217 3 199 0H190V46H221Q241 46 248 46T265 48T279 53T286 61Q287 63 287 115V165H28V211L179 442Q332 674 334 675Q336 677 355 677H373L379 671V211H471V165H379V114Q379 73 379 66T385 54Q393 47 442 46H471V0H462ZM293 211V545L74 212L183 211H293Z"></path>
<path stroke-width="1" id="E1-MJMAIN-32" d="M109 429Q82 429 66 447T50 491Q50 562 103 614T235 666Q326 666 387 610T449 465Q449 422 429 383T381 315T301 241Q265 210 201 149L142 93L218 92Q375 92 385 97Q392 99 409 186V189H449V186Q448 183 436 95T421 3V0H50V19V31Q50 38 56 46T86 81Q115 113 136 137Q145 147 170 174T204 211T233 244T261 278T284 308T305 340T320 369T333 401T340 431T343 464Q343 527 309 573T212 619Q179 619 154 602T119 569T109 550Q109 549 114 549Q132 549 151 535T170 489Q170 464 154 447T109 429Z"></path>
<path stroke-width="1" id="E1-MJMATHI-44" d="M287 628Q287 635 230 637Q207 637 200 638T193 647Q193 655 197 667T204 682Q206 683 403 683Q570 682 590 682T630 676Q702 659 752 597T803 431Q803 275 696 151T444 3L430 1L236 0H125H72Q48 0 41 2T33 11Q33 13 36 25Q40 41 44 43T67 46Q94 46 127 49Q141 52 146 61Q149 65 218 339T287 628ZM703 469Q703 507 692 537T666 584T629 613T590 629T555 636Q553 636 541 636T512 636T479 637H436Q392 637 386 627Q384 623 313 339T242 52Q242 48 253 48T330 47Q335 47 349 47T373 46Q499 46 581 128Q617 164 640 212T683 339T703 469Z"></path>
<path stroke-width="1" id="E1-MJMATHI-42" d="M231 637Q204 637 199 638T194 649Q194 676 205 682Q206 683 335 683Q594 683 608 681Q671 671 713 636T756 544Q756 480 698 429T565 360L555 357Q619 348 660 311T702 219Q702 146 630 78T453 1Q446 0 242 0Q42 0 39 2Q35 5 35 10Q35 17 37 24Q42 43 47 45Q51 46 62 46H68Q95 46 128 49Q142 52 147 61Q150 65 219 339T288 628Q288 635 231 637ZM649 544Q649 574 634 600T585 634Q578 636 493 637Q473 637 451 637T416 636H403Q388 635 384 626Q382 622 352 506Q352 503 351 500L320 374H401Q482 374 494 376Q554 386 601 434T649 544ZM595 229Q595 273 572 302T512 336Q506 337 429 337Q311 337 310 336Q310 334 293 263T258 122L240 52Q240 48 252 48T333 46Q422 46 429 47Q491 54 543 105T595 229Z"></path>
<path stroke-width="1" id="E1-MJMATHI-67" d="M311 43Q296 30 267 15T206 0Q143 0 105 45T66 160Q66 265 143 353T314 442Q361 442 401 394L404 398Q406 401 409 404T418 412T431 419T447 422Q461 422 470 413T480 394Q480 379 423 152T363 -80Q345 -134 286 -169T151 -205Q10 -205 10 -137Q10 -111 28 -91T74 -71Q89 -71 102 -80T116 -111Q116 -121 114 -130T107 -144T99 -154T92 -162L90 -164H91Q101 -167 151 -167Q189 -167 211 -155Q234 -144 254 -122T282 -75Q288 -56 298 -13Q311 35 311 43ZM384 328L380 339Q377 350 375 354T369 368T359 382T346 393T328 402T306 405Q262 405 221 352Q191 313 171 233T151 117Q151 38 213 38Q269 38 323 108L331 118L384 328Z"></path>
<path stroke-width="1" id="E1-MJMAIN-39" d="M352 287Q304 211 232 211Q154 211 104 270T44 396Q42 412 42 436V444Q42 537 111 606Q171 666 243 666Q245 666 249 666T257 665H261Q273 665 286 663T323 651T370 619T413 560Q456 472 456 334Q456 194 396 97Q361 41 312 10T208 -22Q147 -22 108 7T68 93T121 149Q143 149 158 135T173 96Q173 78 164 65T148 49T135 44L131 43Q131 41 138 37T164 27T206 22H212Q272 22 313 86Q352 142 352 280V287ZM244 248Q292 248 321 297T351 430Q351 508 343 542Q341 552 337 562T323 588T293 615T246 625Q208 625 181 598Q160 576 154 546T147 441Q147 358 152 329T172 282Q197 248 244 248Z"></path>
<path stroke-width="1" id="E1-MJMATHI-77" d="M580 385Q580 406 599 424T641 443Q659 443 674 425T690 368Q690 339 671 253Q656 197 644 161T609 80T554 12T482 -11Q438 -11 404 5T355 48Q354 47 352 44Q311 -11 252 -11Q226 -11 202 -5T155 14T118 53T104 116Q104 170 138 262T173 379Q173 380 173 381Q173 390 173 393T169 400T158 404H154Q131 404 112 385T82 344T65 302T57 280Q55 278 41 278H27Q21 284 21 287Q21 293 29 315T52 366T96 418T161 441Q204 441 227 416T250 358Q250 340 217 250T184 111Q184 65 205 46T258 26Q301 26 334 87L339 96V119Q339 122 339 128T340 136T341 143T342 152T345 165T348 182T354 206T362 238T373 281Q402 395 406 404Q419 431 449 431Q468 431 475 421T483 402Q483 389 454 274T422 142Q420 131 420 107V100Q420 85 423 71T442 42T487 26Q558 26 600 148Q609 171 620 213T632 273Q632 306 619 325T593 357T580 385Z"></path>
<path stroke-width="1" id="E1-MJMATHI-6D" d="M21 287Q22 293 24 303T36 341T56 388T88 425T132 442T175 435T205 417T221 395T229 376L231 369Q231 367 232 367L243 378Q303 442 384 442Q401 442 415 440T441 433T460 423T475 411T485 398T493 385T497 373T500 364T502 357L510 367Q573 442 659 442Q713 442 746 415T780 336Q780 285 742 178T704 50Q705 36 709 31T724 26Q752 26 776 56T815 138Q818 149 821 151T837 153Q857 153 857 145Q857 144 853 130Q845 101 831 73T785 17T716 -10Q669 -10 648 17T627 73Q627 92 663 193T700 345Q700 404 656 404H651Q565 404 506 303L499 291L466 157Q433 26 428 16Q415 -11 385 -11Q372 -11 364 -4T353 8T350 18Q350 29 384 161L420 307Q423 322 423 345Q423 404 379 404H374Q288 404 229 303L222 291L189 157Q156 26 151 16Q138 -11 108 -11Q95 -11 87 -5T76 7T74 17Q74 30 112 181Q151 335 151 342Q154 357 154 369Q154 405 129 405Q107 405 92 377T69 316T57 280Q55 278 41 278H27Q21 284 21 287Z"></path>
<path stroke-width="1" id="E1-MJMATHI-59" d="M66 637Q54 637 49 637T39 638T32 641T30 647T33 664T42 682Q44 683 56 683Q104 680 165 680Q288 680 306 683H316Q322 677 322 674T320 656Q316 643 310 637H298Q242 637 242 624Q242 619 292 477T343 333L346 336Q350 340 358 349T379 373T411 410T454 461Q546 568 561 587T577 618Q577 634 545 637Q528 637 528 647Q528 649 530 661Q533 676 535 679T549 683Q551 683 578 682T657 680Q684 680 713 681T746 682Q763 682 763 673Q763 669 760 657T755 643Q753 637 734 637Q662 632 617 587Q608 578 477 424L348 273L322 169Q295 62 295 57Q295 46 363 46Q379 46 384 45T390 35Q390 33 388 23Q384 6 382 4T366 1Q361 1 324 1T232 2Q170 2 138 2T102 1Q84 1 84 9Q84 14 87 24Q88 27 89 30T90 35T91 39T93 42T96 44T101 45T107 45T116 46T129 46Q168 47 180 50T198 63Q201 68 227 171L252 274L129 623Q128 624 127 625T125 627T122 629T118 631T113 633T105 634T96 635T83 636T66 637Z"></path>
<path stroke-width="1" id="E1-MJMATHI-73" d="M131 289Q131 321 147 354T203 415T300 442Q362 442 390 415T419 355Q419 323 402 308T364 292Q351 292 340 300T328 326Q328 342 337 354T354 372T367 378Q368 378 368 379Q368 382 361 388T336 399T297 405Q249 405 227 379T204 326Q204 301 223 291T278 274T330 259Q396 230 396 163Q396 135 385 107T352 51T289 7T195 -10Q118 -10 86 19T53 87Q53 126 74 143T118 160Q133 160 146 151T160 120Q160 94 142 76T111 58Q109 57 108 57T107 55Q108 52 115 47T146 34T201 27Q237 27 263 38T301 66T318 97T323 122Q323 150 302 164T254 181T195 196T148 231Q131 256 131 289Z"></path>
</defs>
<g stroke="currentColor" fill="currentColor" stroke-width="0" transform="matrix(1 0 0 -1 0 0)">
<g transform="translate(1314,0)">
<g transform="translate(167,0)">
<g transform="translate(389,0)">
<g transform="translate(2123,16916)">
 <use xlink:href="#E1-MJMATHI-6C" x="0" y="0"></use>
 <use xlink:href="#E1-MJMATHI-61" x="298" y="0"></use>
 <use xlink:href="#E1-MJMATHI-62" x="828" y="0"></use>
 <use xlink:href="#E1-MJMATHI-65" x="1257" y="0"></use>
 <use xlink:href="#E1-MJMATHI-6C" x="1724" y="0"></use>
 <use xlink:href="#E1-MJMAIN-2E" x="2022" y="0"></use>
 <use xlink:href="#E1-MJMATHI-74" x="2467" y="0"></use>
 <use xlink:href="#E1-MJMATHI-78" x="2829" y="0"></use>
 <use xlink:href="#E1-MJMATHI-74" x="3401" y="0"></use>
</g>
<g transform="translate(3134,15224)">
 <use xlink:href="#E1-MJMATHI-43" x="0" y="0"></use>
 <use xlink:href="#E1-MJMATHI-61" x="760" y="0"></use>
 <use xlink:href="#E1-MJMATHI-72" x="1290" y="0"></use>
</g>
<g transform="translate(3114,13533)">
 <use xlink:href="#E1-MJMAIN-30"></use>
 <use xlink:href="#E1-MJMAIN-2E" x="500" y="0"></use>
 <use xlink:href="#E1-MJMAIN-30" x="779" y="0"></use>
 <use xlink:href="#E1-MJMAIN-30" x="1279" y="0"></use>
</g>
 <use xlink:href="#E1-MJMAIN-30" x="3754" y="11841"></use>
<g transform="translate(3114,10149)">
 <use xlink:href="#E1-MJMAIN-31"></use>
 <use xlink:href="#E1-MJMAIN-2E" x="500" y="0"></use>
 <use xlink:href="#E1-MJMAIN-38" x="779" y="0"></use>
 <use xlink:href="#E1-MJMAIN-35" x="1279" y="0"></use>
</g>
<g transform="translate(1001,8458)">
 <use xlink:href="#E1-MJMAIN-33"></use>
 <use xlink:href="#E1-MJMAIN-38" x="500" y="0"></use>
 <use xlink:href="#E1-MJMAIN-37" x="1001" y="0"></use>
 <use xlink:href="#E1-MJMAIN-2E" x="1501" y="0"></use>
 <use xlink:href="#E1-MJMAIN-36" x="1780" y="0"></use>
 <use xlink:href="#E1-MJMAIN-33" x="2280" y="0"></use>
 <use xlink:href="#E1-MJMAIN-2C" x="2781" y="0"></use>
<g transform="translate(3226,0)">
 <use xlink:href="#E1-MJMAIN-31"></use>
 <use xlink:href="#E1-MJMAIN-38" x="500" y="0"></use>
 <use xlink:href="#E1-MJMAIN-31" x="1001" y="0"></use>
 <use xlink:href="#E1-MJMAIN-2E" x="1501" y="0"></use>
 <use xlink:href="#E1-MJMAIN-35" x="1780" y="0"></use>
 <use xlink:href="#E1-MJMAIN-34" x="2280" y="0"></use>
</g>
</g>
<g transform="translate(1001,6766)">
 <use xlink:href="#E1-MJMAIN-34"></use>
 <use xlink:href="#E1-MJMAIN-32" x="500" y="0"></use>
 <use xlink:href="#E1-MJMAIN-33" x="1001" y="0"></use>
 <use xlink:href="#E1-MJMAIN-2E" x="1501" y="0"></use>
 <use xlink:href="#E1-MJMAIN-38" x="1780" y="0"></use>
 <use xlink:href="#E1-MJMAIN-31" x="2280" y="0"></use>
 <use xlink:href="#E1-MJMAIN-2C" x="2781" y="0"></use>
<g transform="translate(3226,0)">
 <use xlink:href="#E1-MJMAIN-32"></use>
 <use xlink:href="#E1-MJMAIN-30" x="500" y="0"></use>
 <use xlink:href="#E1-MJMAIN-33" x="1001" y="0"></use>
 <use xlink:href="#E1-MJMAIN-2E" x="1501" y="0"></use>
 <use xlink:href="#E1-MJMAIN-31" x="1780" y="0"></use>
 <use xlink:href="#E1-MJMAIN-32" x="2280" y="0"></use>
</g>
</g>
<g transform="translate(889,5074)">
 <use xlink:href="#E1-MJMAIN-31"></use>
 <use xlink:href="#E1-MJMAIN-2E" x="500" y="0"></use>
 <use xlink:href="#E1-MJMAIN-36" x="779" y="0"></use>
 <use xlink:href="#E1-MJMAIN-37" x="1279" y="0"></use>
 <use xlink:href="#E1-MJMAIN-2C" x="1780" y="0"></use>
<g transform="translate(2225,0)">
 <use xlink:href="#E1-MJMAIN-31"></use>
 <use xlink:href="#E1-MJMAIN-2E" x="500" y="0"></use>
 <use xlink:href="#E1-MJMAIN-38" x="779" y="0"></use>
 <use xlink:href="#E1-MJMAIN-37" x="1279" y="0"></use>
</g>
 <use xlink:href="#E1-MJMAIN-2C" x="4005" y="0"></use>
<g transform="translate(4450,0)">
 <use xlink:href="#E1-MJMAIN-33"></use>
 <use xlink:href="#E1-MJMAIN-2E" x="500" y="0"></use>
 <use xlink:href="#E1-MJMAIN-36" x="779" y="0"></use>
 <use xlink:href="#E1-MJMAIN-39" x="1279" y="0"></use>
</g>
</g>
<g transform="translate(0,3383)">
 <use xlink:href="#E1-MJMAIN-2212" x="0" y="0"></use>
<g transform="translate(778,0)">
 <use xlink:href="#E1-MJMAIN-31"></use>
 <use xlink:href="#E1-MJMAIN-36" x="500" y="0"></use>
 <use xlink:href="#E1-MJMAIN-2E" x="1001" y="0"></use>
 <use xlink:href="#E1-MJMAIN-35" x="1279" y="0"></use>
 <use xlink:href="#E1-MJMAIN-33" x="1780" y="0"></use>
</g>
 <use xlink:href="#E1-MJMAIN-2C" x="3059" y="0"></use>
<g transform="translate(3504,0)">
 <use xlink:href="#E1-MJMAIN-32"></use>
 <use xlink:href="#E1-MJMAIN-2E" x="500" y="0"></use>
 <use xlink:href="#E1-MJMAIN-33" x="779" y="0"></use>
 <use xlink:href="#E1-MJMAIN-39" x="1279" y="0"></use>
</g>
 <use xlink:href="#E1-MJMAIN-2C" x="5284" y="0"></use>
<g transform="translate(5729,0)">
 <use xlink:href="#E1-MJMAIN-35"></use>
 <use xlink:href="#E1-MJMAIN-38" x="500" y="0"></use>
 <use xlink:href="#E1-MJMAIN-2E" x="1001" y="0"></use>
 <use xlink:href="#E1-MJMAIN-34" x="1279" y="0"></use>
 <use xlink:href="#E1-MJMAIN-39" x="1780" y="0"></use>
</g>
</g>
<g transform="translate(3114,1691)">
 <use xlink:href="#E1-MJMAIN-31"></use>
 <use xlink:href="#E1-MJMAIN-2E" x="500" y="0"></use>
 <use xlink:href="#E1-MJMAIN-35" x="779" y="0"></use>
 <use xlink:href="#E1-MJMAIN-37" x="1279" y="0"></use>
</g>
</g>
<line stroke-linecap="square" stroke-width="20.9" y1="10" x2="10" x1="10" y2="18628" transform="translate(8899,-646)"></line>
<g transform="translate(9399,0)">
<g transform="translate(8616,16916)">
<text font-family="monospace" stroke="none" transform="scale(71.759) matrix(1 0 0 -1 0 0)">含</text>
<g transform="translate(1148,0)">
<text font-family="monospace" stroke="none" transform="scale(71.759) matrix(1 0 0 -1 0 0)">义</text>
</g>
</g>
<g transform="translate(8616,15224)">
<text font-family="monospace" stroke="none" transform="scale(71.759) matrix(1 0 0 -1 0 0)">类</text>
<g transform="translate(1148,0)">
<text font-family="monospace" stroke="none" transform="scale(71.759) matrix(1 0 0 -1 0 0)">别</text>
</g>
</g>
<g transform="translate(945,13533)">
 <use xlink:href="#E1-MJMATHI-74" x="0" y="0"></use>
 <use xlink:href="#E1-MJMATHI-72" x="361" y="0"></use>
 <use xlink:href="#E1-MJMATHI-75" x="813" y="0"></use>
 <use xlink:href="#E1-MJMATHI-6E" x="1385" y="0"></use>
 <use xlink:href="#E1-MJMATHI-63" x="1986" y="0"></use>
 <use xlink:href="#E1-MJMATHI-61" x="2419" y="0"></use>
 <use xlink:href="#E1-MJMATHI-74" x="2949" y="0"></use>
 <use xlink:href="#E1-MJMATHI-65" x="3310" y="0"></use>
 <use xlink:href="#E1-MJMATHI-64" x="3777" y="0"></use>
 <use xlink:href="#E1-MJMAIN-28" x="4300" y="0"></use>
<g transform="translate(4690,0)">
<text font-family="monospace" stroke="none" transform="scale(71.759) matrix(1 0 0 -1 0 0)">截</text>
</g>
<g transform="translate(5838,0)">
<text font-family="monospace" stroke="none" transform="scale(71.759) matrix(1 0 0 -1 0 0)">断</text>
</g>
<g transform="translate(6986,0)">
<text font-family="monospace" stroke="none" transform="scale(71.759) matrix(1 0 0 -1 0 0)">程</text>
</g>
<g transform="translate(8134,0)">
<text font-family="monospace" stroke="none" transform="scale(71.759) matrix(1 0 0 -1 0 0)">度</text>
</g>
 <use xlink:href="#E1-MJMAIN-29" x="9282" y="0"></use>
 <use xlink:href="#E1-MJMAIN-2C" x="9672" y="0"></use>
<g transform="translate(10117,0)">
 <use xlink:href="#E1-MJMAIN-30"></use>
 <use xlink:href="#E1-MJMAIN-2E" x="500" y="0"></use>
 <use xlink:href="#E1-MJMAIN-30" x="779" y="0"></use>
 <use xlink:href="#E1-MJMAIN-30" x="1279" y="0"></use>
</g>
<g transform="translate(11897,0)">
<text font-family="monospace" stroke="none" transform="scale(71.759) matrix(1 0 0 -1 0 0)">表</text>
</g>
<g transform="translate(13045,0)">
<text font-family="monospace" stroke="none" transform="scale(71.759) matrix(1 0 0 -1 0 0)">示</text>
</g>
<g transform="translate(14193,0)">
<text font-family="monospace" stroke="none" transform="scale(71.759) matrix(1 0 0 -1 0 0)">无</text>
</g>
<g transform="translate(15341,0)">
<text font-family="monospace" stroke="none" transform="scale(71.759) matrix(1 0 0 -1 0 0)">截</text>
</g>
<g transform="translate(16489,0)">
<text font-family="monospace" stroke="none" transform="scale(71.759) matrix(1 0 0 -1 0 0)">断</text>
</g>
</g>
<g transform="translate(2440,11841)">
 <use xlink:href="#E1-MJMATHI-6F" x="0" y="0"></use>
 <use xlink:href="#E1-MJMATHI-63" x="485" y="0"></use>
 <use xlink:href="#E1-MJMATHI-63" x="919" y="0"></use>
 <use xlink:href="#E1-MJMATHI-6C" x="1352" y="0"></use>
 <use xlink:href="#E1-MJMATHI-75" x="1651" y="0"></use>
 <use xlink:href="#E1-MJMATHI-64" x="2223" y="0"></use>
 <use xlink:href="#E1-MJMATHI-65" x="2747" y="0"></use>
 <use xlink:href="#E1-MJMATHI-64" x="3213" y="0"></use>
 <use xlink:href="#E1-MJMAIN-28" x="3737" y="0"></use>
<g transform="translate(4126,0)">
<text font-family="monospace" stroke="none" transform="scale(71.759) matrix(1 0 0 -1 0 0)">遮</text>
</g>
<g transform="translate(5274,0)">
<text font-family="monospace" stroke="none" transform="scale(71.759) matrix(1 0 0 -1 0 0)">挡</text>
</g>
<g transform="translate(6422,0)">
<text font-family="monospace" stroke="none" transform="scale(71.759) matrix(1 0 0 -1 0 0)">率</text>
</g>
 <use xlink:href="#E1-MJMAIN-29" x="7570" y="0"></use>
 <use xlink:href="#E1-MJMAIN-2C" x="7960" y="0"></use>
 <use xlink:href="#E1-MJMAIN-30" x="8405" y="0"></use>
<g transform="translate(8906,0)">
<text font-family="monospace" stroke="none" transform="scale(71.759) matrix(1 0 0 -1 0 0)">表</text>
</g>
<g transform="translate(10054,0)">
<text font-family="monospace" stroke="none" transform="scale(71.759) matrix(1 0 0 -1 0 0)">示</text>
</g>
<g transform="translate(11202,0)">
<text font-family="monospace" stroke="none" transform="scale(71.759) matrix(1 0 0 -1 0 0)">无</text>
</g>
<g transform="translate(12350,0)">
<text font-family="monospace" stroke="none" transform="scale(71.759) matrix(1 0 0 -1 0 0)">遮</text>
</g>
<g transform="translate(13498,0)">
<text font-family="monospace" stroke="none" transform="scale(71.759) matrix(1 0 0 -1 0 0)">挡</text>
</g>
</g>
<g transform="translate(4120,10149)">
 <use xlink:href="#E1-MJMATHI-61" x="0" y="0"></use>
 <use xlink:href="#E1-MJMATHI-6C" x="529" y="0"></use>
 <use xlink:href="#E1-MJMATHI-70" x="828" y="0"></use>
 <use xlink:href="#E1-MJMATHI-68" x="1331" y="0"></use>
 <use xlink:href="#E1-MJMATHI-61" x="1908" y="0"></use>
 <use xlink:href="#E1-MJMAIN-28" x="2437" y="0"></use>
 <use xlink:href="#E1-MJMAIN-5B" x="2827" y="0"></use>
 <use xlink:href="#E1-MJMAIN-2212" x="3105" y="0"></use>
 <use xlink:href="#E1-MJMATHI-70" x="3884" y="0"></use>
 <use xlink:href="#E1-MJMATHI-69" x="4387" y="0"></use>
 <use xlink:href="#E1-MJMAIN-2C" x="4733" y="0"></use>
 <use xlink:href="#E1-MJMATHI-70" x="5178" y="0"></use>
 <use xlink:href="#E1-MJMATHI-69" x="5681" y="0"></use>
 <use xlink:href="#E1-MJMAIN-5D" x="6027" y="0"></use>
 <use xlink:href="#E1-MJMAIN-29" x="6305" y="0"></use>
<g transform="translate(6695,0)">
<text font-family="monospace" stroke="none" transform="scale(71.759) matrix(1 0 0 -1 0 0)">观</text>
</g>
<g transform="translate(7843,0)">
<text font-family="monospace" stroke="none" transform="scale(71.759) matrix(1 0 0 -1 0 0)">察</text>
</g>
<g transform="translate(8991,0)">
<text font-family="monospace" stroke="none" transform="scale(71.759) matrix(1 0 0 -1 0 0)">角</text>
</g>
<g transform="translate(10139,0)">
<text font-family="monospace" stroke="none" transform="scale(71.759) matrix(1 0 0 -1 0 0)">度</text>
</g>
</g>
<g transform="translate(1413,8458)">
 <use xlink:href="#E1-MJMAIN-32" x="0" y="0"></use>
 <use xlink:href="#E1-MJMATHI-44" x="500" y="0"></use>
 <use xlink:href="#E1-MJMATHI-42" x="1329" y="0"></use>
 <use xlink:href="#E1-MJMATHI-6F" x="2088" y="0"></use>
 <use xlink:href="#E1-MJMATHI-75" x="2574" y="0"></use>
 <use xlink:href="#E1-MJMATHI-6E" x="3146" y="0"></use>
 <use xlink:href="#E1-MJMATHI-64" x="3747" y="0"></use>
 <use xlink:href="#E1-MJMATHI-69" x="4270" y="0"></use>
 <use xlink:href="#E1-MJMATHI-6E" x="4616" y="0"></use>
 <use xlink:href="#E1-MJMATHI-67" x="5216" y="0"></use>
 <use xlink:href="#E1-MJMATHI-42" x="5697" y="0"></use>
 <use xlink:href="#E1-MJMATHI-6F" x="6456" y="0"></use>
 <use xlink:href="#E1-MJMATHI-78" x="6942" y="0"></use>
 <use xlink:href="#E1-MJMAIN-28" x="7514" y="0"></use>
 <use xlink:href="#E1-MJMATHI-42" x="7904" y="0"></use>
 <use xlink:href="#E1-MJMATHI-42" x="8663" y="0"></use>
 <use xlink:href="#E1-MJMAIN-29" x="9423" y="0"></use>
<g transform="translate(9812,0)">
<text font-family="monospace" stroke="none" transform="scale(71.759) matrix(1 0 0 -1 0 0)">左</text>
</g>
<g transform="translate(10960,0)">
<text font-family="monospace" stroke="none" transform="scale(71.759) matrix(1 0 0 -1 0 0)">上</text>
</g>
<g transform="translate(12108,0)">
<text font-family="monospace" stroke="none" transform="scale(71.759) matrix(1 0 0 -1 0 0)">角</text>
</g>
<g transform="translate(13256,0)">
<text font-family="monospace" stroke="none" transform="scale(71.759) matrix(1 0 0 -1 0 0)">的</text>
</g>
<g transform="translate(14405,0)">
<text font-family="monospace" stroke="none" transform="scale(71.759) matrix(1 0 0 -1 0 0)">坐</text>
</g>
<g transform="translate(15553,0)">
<text font-family="monospace" stroke="none" transform="scale(71.759) matrix(1 0 0 -1 0 0)">标</text>
</g>
</g>
<g transform="translate(4895,6766)">
 <use xlink:href="#E1-MJMAIN-32" x="0" y="0"></use>
 <use xlink:href="#E1-MJMATHI-44" x="500" y="0"></use>
 <use xlink:href="#E1-MJMATHI-42" x="1329" y="0"></use>
 <use xlink:href="#E1-MJMATHI-42" x="2088" y="0"></use>
<g transform="translate(2848,0)">
<text font-family="monospace" stroke="none" transform="scale(71.759) matrix(1 0 0 -1 0 0)">右</text>
</g>
<g transform="translate(3996,0)">
<text font-family="monospace" stroke="none" transform="scale(71.759) matrix(1 0 0 -1 0 0)">下</text>
</g>
<g transform="translate(5144,0)">
<text font-family="monospace" stroke="none" transform="scale(71.759) matrix(1 0 0 -1 0 0)">角</text>
</g>
<g transform="translate(6292,0)">
<text font-family="monospace" stroke="none" transform="scale(71.759) matrix(1 0 0 -1 0 0)">的</text>
</g>
<g transform="translate(7440,0)">
<text font-family="monospace" stroke="none" transform="scale(71.759) matrix(1 0 0 -1 0 0)">坐</text>
</g>
<g transform="translate(8588,0)">
<text font-family="monospace" stroke="none" transform="scale(71.759) matrix(1 0 0 -1 0 0)">标</text>
</g>
</g>
<g transform="translate(3263,5074)">
 <use xlink:href="#E1-MJMAIN-33" x="0" y="0"></use>
 <use xlink:href="#E1-MJMATHI-44" x="500" y="0"></use>
 <use xlink:href="#E1-MJMATHI-42" x="1329" y="0"></use>
 <use xlink:href="#E1-MJMATHI-42" x="2088" y="0"></use>
<g transform="translate(2848,0)">
<text font-family="monospace" stroke="none" transform="scale(71.759) matrix(1 0 0 -1 0 0)">的</text>
</g>
 <use xlink:href="#E1-MJMATHI-68" x="3996" y="0"></use>
 <use xlink:href="#E1-MJMATHI-65" x="4572" y="0"></use>
 <use xlink:href="#E1-MJMATHI-69" x="5039" y="0"></use>
 <use xlink:href="#E1-MJMATHI-67" x="5384" y="0"></use>
 <use xlink:href="#E1-MJMATHI-68" x="5865" y="0"></use>
 <use xlink:href="#E1-MJMATHI-74" x="6441" y="0"></use>
 <use xlink:href="#E1-MJMAIN-2C" x="6803" y="0"></use>
 <use xlink:href="#E1-MJMATHI-77" x="7248" y="0"></use>
 <use xlink:href="#E1-MJMATHI-69" x="7964" y="0"></use>
 <use xlink:href="#E1-MJMATHI-64" x="8310" y="0"></use>
 <use xlink:href="#E1-MJMATHI-74" x="8833" y="0"></use>
 <use xlink:href="#E1-MJMATHI-68" x="9195" y="0"></use>
 <use xlink:href="#E1-MJMAIN-2C" x="9771" y="0"></use>
 <use xlink:href="#E1-MJMATHI-6C" x="10216" y="0"></use>
 <use xlink:href="#E1-MJMATHI-65" x="10515" y="0"></use>
 <use xlink:href="#E1-MJMATHI-6E" x="10981" y="0"></use>
 <use xlink:href="#E1-MJMATHI-67" x="11582" y="0"></use>
 <use xlink:href="#E1-MJMATHI-74" x="12062" y="0"></use>
 <use xlink:href="#E1-MJMATHI-68" x="12424" y="0"></use>
</g>
<g transform="translate(2103,3383)">
 <use xlink:href="#E1-MJMAIN-33" x="0" y="0"></use>
 <use xlink:href="#E1-MJMATHI-44" x="500" y="0"></use>
 <use xlink:href="#E1-MJMATHI-42" x="1329" y="0"></use>
 <use xlink:href="#E1-MJMATHI-42" x="2088" y="0"></use>
<g transform="translate(2848,0)">
<text font-family="monospace" stroke="none" transform="scale(71.759) matrix(1 0 0 -1 0 0)">位</text>
</g>
<g transform="translate(3996,0)">
<text font-family="monospace" stroke="none" transform="scale(71.759) matrix(1 0 0 -1 0 0)">置</text>
</g>
<g transform="translate(5144,0)">
<text font-family="monospace" stroke="none" transform="scale(71.759) matrix(1 0 0 -1 0 0)">在</text>
</g>
 <use xlink:href="#E1-MJMATHI-63" x="6292" y="0"></use>
 <use xlink:href="#E1-MJMATHI-61" x="6725" y="0"></use>
 <use xlink:href="#E1-MJMATHI-6D" x="7255" y="0"></use>
 <use xlink:href="#E1-MJMATHI-65" x="8133" y="0"></use>
 <use xlink:href="#E1-MJMATHI-72" x="8600" y="0"></use>
 <use xlink:href="#E1-MJMATHI-61" x="9051" y="0"></use>
<g transform="translate(9581,0)">
<text font-family="monospace" stroke="none" transform="scale(71.759) matrix(1 0 0 -1 0 0)">相</text>
</g>
<g transform="translate(10729,0)">
<text font-family="monospace" stroke="none" transform="scale(71.759) matrix(1 0 0 -1 0 0)">机</text>
</g>
<g transform="translate(11877,0)">
<text font-family="monospace" stroke="none" transform="scale(71.759) matrix(1 0 0 -1 0 0)">的</text>
</g>
<g transform="translate(13025,0)">
<text font-family="monospace" stroke="none" transform="scale(71.759) matrix(1 0 0 -1 0 0)">坐</text>
</g>
<g transform="translate(14174,0)">
<text font-family="monospace" stroke="none" transform="scale(71.759) matrix(1 0 0 -1 0 0)">标</text>
</g>
</g>
<g transform="translate(4215,1691)">
<text font-family="monospace" stroke="none" transform="scale(71.759) matrix(1 0 0 -1 0 0)">是</text>
<g transform="translate(1148,0)">
<text font-family="monospace" stroke="none" transform="scale(71.759) matrix(1 0 0 -1 0 0)">相</text>
</g>
<g transform="translate(2296,0)">
<text font-family="monospace" stroke="none" transform="scale(71.759) matrix(1 0 0 -1 0 0)">对</text>
</g>
 <use xlink:href="#E1-MJMATHI-59" x="3444" y="0"></use>
<g transform="translate(4207,0)">
<text font-family="monospace" stroke="none" transform="scale(71.759) matrix(1 0 0 -1 0 0)">轴</text>
</g>
<g transform="translate(5356,0)">
<text font-family="monospace" stroke="none" transform="scale(71.759) matrix(1 0 0 -1 0 0)">的</text>
</g>
<g transform="translate(6504,0)">
<text font-family="monospace" stroke="none" transform="scale(71.759) matrix(1 0 0 -1 0 0)">旋</text>
</g>
<g transform="translate(7652,0)">
<text font-family="monospace" stroke="none" transform="scale(71.759) matrix(1 0 0 -1 0 0)">转</text>
</g>
<g transform="translate(8800,0)">
<text font-family="monospace" stroke="none" transform="scale(71.759) matrix(1 0 0 -1 0 0)">角</text>
</g>
<g transform="translate(9948,0)">
<text font-family="monospace" stroke="none" transform="scale(71.759) matrix(1 0 0 -1 0 0)">度</text>
</g>
</g>
<text font-family="monospace" stroke="none" transform="scale(71.759) matrix(1 0 0 -1 0 0)">最</text>
<g transform="translate(1148,0)">
<text font-family="monospace" stroke="none" transform="scale(71.759) matrix(1 0 0 -1 0 0)">后</text>
</g>
<g transform="translate(2296,0)">
<text font-family="monospace" stroke="none" transform="scale(71.759) matrix(1 0 0 -1 0 0)">一</text>
</g>
<g transform="translate(3444,0)">
<text font-family="monospace" stroke="none" transform="scale(71.759) matrix(1 0 0 -1 0 0)">个</text>
</g>
<g transform="translate(4592,0)">
<text font-family="monospace" stroke="none" transform="scale(71.759) matrix(1 0 0 -1 0 0)">字</text>
</g>
<g transform="translate(5740,0)">
<text font-family="monospace" stroke="none" transform="scale(71.759) matrix(1 0 0 -1 0 0)">段</text>
</g>
 <use xlink:href="#E1-MJMATHI-73" x="6888" y="0"></use>
 <use xlink:href="#E1-MJMATHI-63" x="7358" y="0"></use>
 <use xlink:href="#E1-MJMATHI-6F" x="7791" y="0"></use>
 <use xlink:href="#E1-MJMATHI-72" x="8277" y="0"></use>
 <use xlink:href="#E1-MJMATHI-65" x="8728" y="0"></use>
<g transform="translate(9195,0)">
<text font-family="monospace" stroke="none" transform="scale(71.759) matrix(1 0 0 -1 0 0)">没</text>
</g>
<g transform="translate(10343,0)">
<text font-family="monospace" stroke="none" transform="scale(71.759) matrix(1 0 0 -1 0 0)">有</text>
</g>
<g transform="translate(11491,0)">
<text font-family="monospace" stroke="none" transform="scale(71.759) matrix(1 0 0 -1 0 0)">在</text>
</g>
<g transform="translate(12639,0)">
<text font-family="monospace" stroke="none" transform="scale(71.759) matrix(1 0 0 -1 0 0)">训</text>
</g>
<g transform="translate(13787,0)">
<text font-family="monospace" stroke="none" transform="scale(71.759) matrix(1 0 0 -1 0 0)">练</text>
</g>
<g transform="translate(14936,0)">
<text font-family="monospace" stroke="none" transform="scale(71.759) matrix(1 0 0 -1 0 0)">集</text>
</g>
<g transform="translate(16084,0)">
<text font-family="monospace" stroke="none" transform="scale(71.759) matrix(1 0 0 -1 0 0)">中</text>
</g>
<g transform="translate(17232,0)">
<text font-family="monospace" stroke="none" transform="scale(71.759) matrix(1 0 0 -1 0 0)">体</text>
</g>
<g transform="translate(18380,0)">
<text font-family="monospace" stroke="none" transform="scale(71.759) matrix(1 0 0 -1 0 0)">现</text>
</g>
</g>
<line stroke-linecap="square" stroke-width="20.9" y2="10" y1="10" x1="10" x2="29317" transform="translate(0,17972)"></line>
<line stroke-linecap="square" stroke-width="20.9" y2="10" y1="10" x1="10" x2="29317" transform="translate(0,-646)"></line>
<line stroke-linecap="square" stroke-width="20.9" y1="10" x2="10" x1="10" y2="18628" transform="translate(0,-646)"></line>
<line stroke-linecap="square" stroke-width="20.9" y1="10" x2="10" x1="10" y2="18628" transform="translate(29307,-646)"></line>
<line stroke-linecap="square" stroke-width="20.9" y2="10" y1="10" x1="10" x2="29317" transform="translate(0,16275)"></line>
<line stroke-linecap="square" stroke-width="20.9" y2="10" y1="10" x1="10" x2="29317" transform="translate(0,14583)"></line>
<line stroke-linecap="square" stroke-width="20.9" y2="10" y1="10" x1="10" x2="29317" transform="translate(0,12892)"></line>
<line stroke-linecap="square" stroke-width="20.9" y2="10" y1="10" x1="10" x2="29317" transform="translate(0,11200)"></line>
<line stroke-linecap="square" stroke-width="20.9" y2="10" y1="10" x1="10" x2="29317" transform="translate(0,9508)"></line>
<line stroke-linecap="square" stroke-width="20.9" y2="10" y1="10" x1="10" x2="29317" transform="translate(0,7817)"></line>
<line stroke-linecap="square" stroke-width="20.9" y2="10" y1="10" x1="10" x2="29317" transform="translate(0,6125)"></line>
<line stroke-linecap="square" stroke-width="20.9" y2="10" y1="10" x1="10" x2="29317" transform="translate(0,4433)"></line>
<line stroke-linecap="square" stroke-width="20.9" y2="10" y1="10" x1="10" x2="29317" transform="translate(0,2742)"></line>
<line stroke-linecap="square" stroke-width="20.9" y2="10" y1="10" x1="10" x2="29317" transform="translate(0,1050)"></line>
</g>
</g>
</g>
</svg>